M48
; DRILL file {KiCad (5.1.12)-1} date 02/14/22 10:57:34
; FORMAT={-:-/ absolute / inch / decimal}
; #@! TF.CreationDate,2022-02-14T10:57:34+02:00
; #@! TF.GenerationSoftware,Kicad,Pcbnew,(5.1.12)-1
; #@! TF.FileFunction,Plated,1,2,PTH
FMAT,2
INCH
T1C0.0150
T2C0.0236
T3C0.0315
T4C0.0394
T5C0.0433
T6C0.0512
T7C0.1575
%
G90
G05
T1
X4.9575Y-3.9775
X5.0275Y-3.1475
X5.0625Y-3.26
X5.1225Y-4.2575
X5.1725Y-5.31
X5.19Y-3.2975
X5.225Y-4.1875
X5.35Y-5.31
X5.4575Y-4.24
X5.4725Y-4.8875
X5.4875Y-2.6725
X5.5025Y-2.6075
X5.535Y-4.99
X5.6Y-4.1025
X5.615Y-2.515
X5.7Y-2.34
X5.7Y-2.375
X5.7Y-2.41
X5.7025Y-2.2675
X5.7025Y-2.305
X5.7325Y-4.065
X5.735Y-2.3375
X5.735Y-2.3725
X5.735Y-2.41
X5.7375Y-2.2675
X5.7375Y-2.3025
X5.78Y-2.4475
X5.78Y-2.485
X5.785Y-2.1925
X5.785Y-2.23
X5.815Y-2.4475
X5.815Y-2.485
X5.82Y-2.1925
X5.82Y-2.23
X5.85Y-2.45
X5.85Y-2.485
X5.855Y-2.1925
X5.855Y-2.23
X5.8925Y-2.2575
X5.8925Y-2.295
X5.8925Y-2.3325
X5.8925Y-2.37
X5.8925Y-2.4075
X5.93Y-2.2575
X5.93Y-2.295
X5.93Y-2.3325
X5.93Y-2.37
X5.93Y-2.4075
X6.0Y-3.065
X6.0Y-5.2325
X6.2675Y-2.8425
X6.305Y-2.9875
X6.58Y-3.0025
X6.7427Y-2.5472
T2
X4.4819Y-5.54
X4.4944Y-2.2275
X4.5165Y-5.4565
X4.5165Y-5.6235
X4.529Y-2.144
X4.529Y-2.311
X4.6Y-5.4219
X4.6Y-5.6581
X4.6125Y-2.1094
X4.6125Y-2.3456
X4.6835Y-5.4565
X4.6835Y-5.6235
X4.696Y-2.144
X4.696Y-2.311
X4.7181Y-5.54
X4.7306Y-2.2275
X6.6019Y-2.2075
X6.6194Y-5.545
X6.6365Y-2.124
X6.6365Y-2.291
X6.654Y-5.4615
X6.654Y-5.6285
X6.72Y-2.0894
X6.72Y-2.3256
X6.7375Y-5.4269
X6.7375Y-5.6631
X6.8035Y-2.124
X6.8035Y-2.291
X6.821Y-5.4615
X6.821Y-5.6285
X6.8381Y-2.2075
X6.8556Y-5.545
T3
X5.11Y-2.7279
X5.11Y-2.92
X5.39Y-3.23
X5.39Y-3.33
X5.39Y-3.43
X5.39Y-3.53
X5.39Y-3.63
X5.39Y-3.73
X5.39Y-3.83
X5.39Y-3.93
X5.39Y-4.03
X5.39Y-4.13
X5.39Y-4.23
X5.39Y-4.33
X5.39Y-4.43
X5.39Y-4.53
X5.39Y-4.63
X5.39Y-4.73
X5.39Y-4.83
X5.39Y-4.93
X5.39Y-5.03
X5.39Y-5.13
X5.99Y-3.23
X5.99Y-3.33
X5.99Y-3.43
X5.99Y-3.53
X5.99Y-3.63
X5.99Y-3.73
X5.99Y-3.83
X5.99Y-3.93
X5.99Y-4.03
X5.99Y-4.13
X5.99Y-4.23
X5.99Y-4.33
X5.99Y-4.43
X5.99Y-4.53
X5.99Y-4.63
X5.99Y-4.73
X5.99Y-4.83
X5.99Y-4.93
X5.99Y-5.03
X5.99Y-5.13
T4
X4.57Y-3.11
X4.57Y-3.21
X4.57Y-3.31
X4.57Y-3.41
X4.57Y-3.51
X4.57Y-3.61
X4.57Y-3.71
X4.57Y-3.81
X4.5725Y-4.37
X4.5725Y-4.47
X4.5725Y-4.57
X4.5725Y-4.67
X4.5725Y-4.77
X4.5725Y-4.87
X4.5725Y-4.97
X4.5725Y-5.07
X5.51Y-5.48
X5.51Y-5.58
X5.61Y-5.48
X5.61Y-5.58
X5.71Y-5.48
X5.71Y-5.58
X5.81Y-5.48
X5.81Y-5.58
X5.91Y-5.48
X5.91Y-5.58
X6.78Y-3.1
X6.78Y-3.2
X6.78Y-3.3
X6.78Y-3.4
X6.78Y-3.5
X6.78Y-3.6
X6.78Y-3.7
X6.78Y-3.8
X6.78Y-4.3675
X6.78Y-4.4675
X6.78Y-4.5675
X6.78Y-4.6675
X6.78Y-4.7675
X6.78Y-4.8675
X6.78Y-4.9675
X6.78Y-5.0675
T5
X6.6475Y-2.6675
X6.6475Y-2.8447
X6.9034Y-2.6675
X6.9034Y-2.8447
T6
X6.1231Y-2.2625
X6.32Y-2.2625
T7
X4.6Y-5.54
X4.6125Y-2.2275
X6.72Y-2.2075
X6.7375Y-5.545
T3
G00X4.951Y-2.2986
M15
G01X4.951Y-2.3852
M16
G05
G00X5.1833Y-2.2317
M15
G01X5.0967Y-2.2317
M16
G05
G00X5.1912Y-2.46
M15
G01X5.0888Y-2.46
M16
G05
T0
M30
