%TF.GenerationSoftware,KiCad,Pcbnew,(5.1.12)-1*%
%TF.CreationDate,2022-02-14T10:56:51+02:00*%
%TF.ProjectId,ATMEGA32A_PU_V1,41544d45-4741-4333-9241-5f50555f5631,V01*%
%TF.SameCoordinates,Original*%
%TF.FileFunction,Soldermask,Top*%
%TF.FilePolarity,Negative*%
%FSLAX46Y46*%
G04 Gerber Fmt 4.6, Leading zero omitted, Abs format (unit mm)*
G04 Created by KiCad (PCBNEW (5.1.12)-1) date 2022-02-14 10:56:51*
%MOMM*%
%LPD*%
G01*
G04 APERTURE LIST*
%ADD10R,4.400000X1.800000*%
%ADD11O,4.000000X1.800000*%
%ADD12O,1.800000X4.000000*%
%ADD13C,8.000000*%
%ADD14C,0.900000*%
%ADD15C,1.700000*%
%ADD16R,2.600000X2.600000*%
%ADD17C,2.600000*%
%ADD18O,1.700000X1.700000*%
%ADD19R,1.700000X1.700000*%
%ADD20C,2.000000*%
%ADD21R,1.600000X1.600000*%
%ADD22O,1.600000X1.600000*%
%ADD23C,1.500000*%
%ADD24R,2.000000X3.800000*%
%ADD25R,2.000000X1.500000*%
G04 APERTURE END LIST*
D10*
%TO.C,J2*%
X130556000Y-62484000D03*
D11*
X130556000Y-56684000D03*
D12*
X125756000Y-59484000D03*
%TD*%
%TO.C,C1*%
G36*
G01*
X134751500Y-73627000D02*
X134751500Y-72677000D01*
G75*
G02*
X135001500Y-72427000I250000J0D01*
G01*
X135676500Y-72427000D01*
G75*
G02*
X135926500Y-72677000I0J-250000D01*
G01*
X135926500Y-73627000D01*
G75*
G02*
X135676500Y-73877000I-250000J0D01*
G01*
X135001500Y-73877000D01*
G75*
G02*
X134751500Y-73627000I0J250000D01*
G01*
G37*
G36*
G01*
X136826500Y-73627000D02*
X136826500Y-72677000D01*
G75*
G02*
X137076500Y-72427000I250000J0D01*
G01*
X137751500Y-72427000D01*
G75*
G02*
X138001500Y-72677000I0J-250000D01*
G01*
X138001500Y-73627000D01*
G75*
G02*
X137751500Y-73877000I-250000J0D01*
G01*
X137076500Y-73877000D01*
G75*
G02*
X136826500Y-73627000I0J250000D01*
G01*
G37*
%TD*%
%TO.C,C2*%
G36*
G01*
X136826500Y-69817000D02*
X136826500Y-68867000D01*
G75*
G02*
X137076500Y-68617000I250000J0D01*
G01*
X137751500Y-68617000D01*
G75*
G02*
X138001500Y-68867000I0J-250000D01*
G01*
X138001500Y-69817000D01*
G75*
G02*
X137751500Y-70067000I-250000J0D01*
G01*
X137076500Y-70067000D01*
G75*
G02*
X136826500Y-69817000I0J250000D01*
G01*
G37*
G36*
G01*
X134751500Y-69817000D02*
X134751500Y-68867000D01*
G75*
G02*
X135001500Y-68617000I250000J0D01*
G01*
X135676500Y-68617000D01*
G75*
G02*
X135926500Y-68867000I0J-250000D01*
G01*
X135926500Y-69817000D01*
G75*
G02*
X135676500Y-70067000I-250000J0D01*
G01*
X135001500Y-70067000D01*
G75*
G02*
X134751500Y-69817000I0J250000D01*
G01*
G37*
%TD*%
%TO.C,C3*%
G36*
G01*
X156685000Y-71475000D02*
X155735000Y-71475000D01*
G75*
G02*
X155485000Y-71225000I0J250000D01*
G01*
X155485000Y-70550000D01*
G75*
G02*
X155735000Y-70300000I250000J0D01*
G01*
X156685000Y-70300000D01*
G75*
G02*
X156935000Y-70550000I0J-250000D01*
G01*
X156935000Y-71225000D01*
G75*
G02*
X156685000Y-71475000I-250000J0D01*
G01*
G37*
G36*
G01*
X156685000Y-69400000D02*
X155735000Y-69400000D01*
G75*
G02*
X155485000Y-69150000I0J250000D01*
G01*
X155485000Y-68475000D01*
G75*
G02*
X155735000Y-68225000I250000J0D01*
G01*
X156685000Y-68225000D01*
G75*
G02*
X156935000Y-68475000I0J-250000D01*
G01*
X156935000Y-69150000D01*
G75*
G02*
X156685000Y-69400000I-250000J0D01*
G01*
G37*
%TD*%
%TO.C,C4*%
G36*
G01*
X121350000Y-65320000D02*
X121350000Y-64220000D01*
G75*
G02*
X121600000Y-63970000I250000J0D01*
G01*
X124100000Y-63970000D01*
G75*
G02*
X124350000Y-64220000I0J-250000D01*
G01*
X124350000Y-65320000D01*
G75*
G02*
X124100000Y-65570000I-250000J0D01*
G01*
X121600000Y-65570000D01*
G75*
G02*
X121350000Y-65320000I0J250000D01*
G01*
G37*
G36*
G01*
X116950000Y-65320000D02*
X116950000Y-64220000D01*
G75*
G02*
X117200000Y-63970000I250000J0D01*
G01*
X119700000Y-63970000D01*
G75*
G02*
X119950000Y-64220000I0J-250000D01*
G01*
X119950000Y-65320000D01*
G75*
G02*
X119700000Y-65570000I-250000J0D01*
G01*
X117200000Y-65570000D01*
G75*
G02*
X116950000Y-65320000I0J250000D01*
G01*
G37*
%TD*%
%TO.C,C5*%
G36*
G01*
X116950000Y-72686000D02*
X116950000Y-71586000D01*
G75*
G02*
X117200000Y-71336000I250000J0D01*
G01*
X119700000Y-71336000D01*
G75*
G02*
X119950000Y-71586000I0J-250000D01*
G01*
X119950000Y-72686000D01*
G75*
G02*
X119700000Y-72936000I-250000J0D01*
G01*
X117200000Y-72936000D01*
G75*
G02*
X116950000Y-72686000I0J250000D01*
G01*
G37*
G36*
G01*
X121350000Y-72686000D02*
X121350000Y-71586000D01*
G75*
G02*
X121600000Y-71336000I250000J0D01*
G01*
X124100000Y-71336000D01*
G75*
G02*
X124350000Y-71586000I0J-250000D01*
G01*
X124350000Y-72686000D01*
G75*
G02*
X124100000Y-72936000I-250000J0D01*
G01*
X121600000Y-72936000D01*
G75*
G02*
X121350000Y-72686000I0J250000D01*
G01*
G37*
%TD*%
%TO.C,D1*%
G36*
G01*
X163592500Y-73988500D02*
X164067500Y-73988500D01*
G75*
G02*
X164305000Y-74226000I0J-237500D01*
G01*
X164305000Y-74801000D01*
G75*
G02*
X164067500Y-75038500I-237500J0D01*
G01*
X163592500Y-75038500D01*
G75*
G02*
X163355000Y-74801000I0J237500D01*
G01*
X163355000Y-74226000D01*
G75*
G02*
X163592500Y-73988500I237500J0D01*
G01*
G37*
G36*
G01*
X163592500Y-75738500D02*
X164067500Y-75738500D01*
G75*
G02*
X164305000Y-75976000I0J-237500D01*
G01*
X164305000Y-76551000D01*
G75*
G02*
X164067500Y-76788500I-237500J0D01*
G01*
X163592500Y-76788500D01*
G75*
G02*
X163355000Y-76551000I0J237500D01*
G01*
X163355000Y-75976000D01*
G75*
G02*
X163592500Y-75738500I237500J0D01*
G01*
G37*
%TD*%
D13*
%TO.C,H1*%
X116840000Y-140716000D03*
D14*
X119840000Y-140716000D03*
X118961320Y-142837320D03*
X116840000Y-143716000D03*
X114718680Y-142837320D03*
X113840000Y-140716000D03*
X114718680Y-138594680D03*
X116840000Y-137716000D03*
X118961320Y-138594680D03*
%TD*%
%TO.C,H2*%
X119278820Y-54457180D03*
X117157500Y-53578500D03*
X115036180Y-54457180D03*
X114157500Y-56578500D03*
X115036180Y-58699820D03*
X117157500Y-59578500D03*
X119278820Y-58699820D03*
X120157500Y-56578500D03*
D13*
X117157500Y-56578500D03*
%TD*%
D14*
%TO.C,H3*%
X173253820Y-138721680D03*
X171132500Y-137843000D03*
X169011180Y-138721680D03*
X168132500Y-140843000D03*
X169011180Y-142964320D03*
X171132500Y-143843000D03*
X173253820Y-142964320D03*
X174132500Y-140843000D03*
D13*
X171132500Y-140843000D03*
%TD*%
%TO.C,H4*%
X170688000Y-56070500D03*
D14*
X173688000Y-56070500D03*
X172809320Y-58191820D03*
X170688000Y-59070500D03*
X168566680Y-58191820D03*
X167688000Y-56070500D03*
X168566680Y-53949180D03*
X170688000Y-53070500D03*
X172809320Y-53949180D03*
%TD*%
%TO.C,J1*%
G36*
G01*
X140554000Y-142582000D02*
X139354000Y-142582000D01*
G75*
G02*
X139104000Y-142332000I0J250000D01*
G01*
X139104000Y-141132000D01*
G75*
G02*
X139354000Y-140882000I250000J0D01*
G01*
X140554000Y-140882000D01*
G75*
G02*
X140804000Y-141132000I0J-250000D01*
G01*
X140804000Y-142332000D01*
G75*
G02*
X140554000Y-142582000I-250000J0D01*
G01*
G37*
D15*
X142494000Y-141732000D03*
X145034000Y-141732000D03*
X147574000Y-141732000D03*
X150114000Y-141732000D03*
X139954000Y-139192000D03*
X142494000Y-139192000D03*
X145034000Y-139192000D03*
X147574000Y-139192000D03*
X150114000Y-139192000D03*
%TD*%
D16*
%TO.C,J3*%
X160528000Y-57467500D03*
D17*
X155528000Y-57467500D03*
%TD*%
D18*
%TO.C,J4*%
X172212000Y-96520000D03*
X172212000Y-93980000D03*
X172212000Y-91440000D03*
X172212000Y-88900000D03*
X172212000Y-86360000D03*
X172212000Y-83820000D03*
X172212000Y-81280000D03*
D19*
X172212000Y-78740000D03*
%TD*%
%TO.C,J5*%
X172212000Y-128714500D03*
D18*
X172212000Y-126174500D03*
X172212000Y-123634500D03*
X172212000Y-121094500D03*
X172212000Y-118554500D03*
X172212000Y-116014500D03*
X172212000Y-113474500D03*
X172212000Y-110934500D03*
%TD*%
%TO.C,J6*%
X116078000Y-96774000D03*
X116078000Y-94234000D03*
X116078000Y-91694000D03*
X116078000Y-89154000D03*
X116078000Y-86614000D03*
X116078000Y-84074000D03*
X116078000Y-81534000D03*
D19*
X116078000Y-78994000D03*
%TD*%
%TO.C,J7*%
X116141500Y-110998000D03*
D18*
X116141500Y-113538000D03*
X116141500Y-116078000D03*
X116141500Y-118618000D03*
X116141500Y-121158000D03*
X116141500Y-123698000D03*
X116141500Y-126238000D03*
X116141500Y-128778000D03*
%TD*%
%TO.C,R1*%
G36*
G01*
X155839000Y-76312000D02*
X157089000Y-76312000D01*
G75*
G02*
X157339000Y-76562000I0J-250000D01*
G01*
X157339000Y-77362000D01*
G75*
G02*
X157089000Y-77612000I-250000J0D01*
G01*
X155839000Y-77612000D01*
G75*
G02*
X155589000Y-77362000I0J250000D01*
G01*
X155589000Y-76562000D01*
G75*
G02*
X155839000Y-76312000I250000J0D01*
G01*
G37*
G36*
G01*
X155839000Y-73212000D02*
X157089000Y-73212000D01*
G75*
G02*
X157339000Y-73462000I0J-250000D01*
G01*
X157339000Y-74262000D01*
G75*
G02*
X157089000Y-74512000I-250000J0D01*
G01*
X155839000Y-74512000D01*
G75*
G02*
X155589000Y-74262000I0J250000D01*
G01*
X155589000Y-73462000D01*
G75*
G02*
X155839000Y-73212000I250000J0D01*
G01*
G37*
%TD*%
%TO.C,R2*%
G36*
G01*
X163205000Y-68057000D02*
X164455000Y-68057000D01*
G75*
G02*
X164705000Y-68307000I0J-250000D01*
G01*
X164705000Y-69107000D01*
G75*
G02*
X164455000Y-69357000I-250000J0D01*
G01*
X163205000Y-69357000D01*
G75*
G02*
X162955000Y-69107000I0J250000D01*
G01*
X162955000Y-68307000D01*
G75*
G02*
X163205000Y-68057000I250000J0D01*
G01*
G37*
G36*
G01*
X163205000Y-71157000D02*
X164455000Y-71157000D01*
G75*
G02*
X164705000Y-71407000I0J-250000D01*
G01*
X164705000Y-72207000D01*
G75*
G02*
X164455000Y-72457000I-250000J0D01*
G01*
X163205000Y-72457000D01*
G75*
G02*
X162955000Y-72207000I0J250000D01*
G01*
X162955000Y-71407000D01*
G75*
G02*
X163205000Y-71157000I250000J0D01*
G01*
G37*
%TD*%
D20*
%TO.C,SW1*%
X168846500Y-72254500D03*
X168846500Y-67754500D03*
X175346500Y-72254500D03*
X175346500Y-67754500D03*
%TD*%
D21*
%TO.C,U1*%
X136906000Y-82042000D03*
D22*
X152146000Y-130302000D03*
X136906000Y-84582000D03*
X152146000Y-127762000D03*
X136906000Y-87122000D03*
X152146000Y-125222000D03*
X136906000Y-89662000D03*
X152146000Y-122682000D03*
X136906000Y-92202000D03*
X152146000Y-120142000D03*
X136906000Y-94742000D03*
X152146000Y-117602000D03*
X136906000Y-97282000D03*
X152146000Y-115062000D03*
X136906000Y-99822000D03*
X152146000Y-112522000D03*
X136906000Y-102362000D03*
X152146000Y-109982000D03*
X136906000Y-104902000D03*
X152146000Y-107442000D03*
X136906000Y-107442000D03*
X152146000Y-104902000D03*
X136906000Y-109982000D03*
X152146000Y-102362000D03*
X136906000Y-112522000D03*
X152146000Y-99822000D03*
X136906000Y-115062000D03*
X152146000Y-97282000D03*
X136906000Y-117602000D03*
X152146000Y-94742000D03*
X136906000Y-120142000D03*
X152146000Y-92202000D03*
X136906000Y-122682000D03*
X152146000Y-89662000D03*
X136906000Y-125222000D03*
X152146000Y-87122000D03*
X136906000Y-127762000D03*
X152146000Y-84582000D03*
X136906000Y-130302000D03*
X152146000Y-82042000D03*
%TD*%
D23*
%TO.C,Y1*%
X129794000Y-74168000D03*
X129794000Y-69288000D03*
%TD*%
D24*
%TO.C,U2*%
X147549000Y-59372500D03*
D25*
X141249000Y-59372500D03*
X141249000Y-61672500D03*
X141249000Y-57072500D03*
%TD*%
%TO.C,D2*%
G36*
G01*
X168512500Y-64914000D02*
X168037500Y-64914000D01*
G75*
G02*
X167800000Y-64676500I0J237500D01*
G01*
X167800000Y-64101500D01*
G75*
G02*
X168037500Y-63864000I237500J0D01*
G01*
X168512500Y-63864000D01*
G75*
G02*
X168750000Y-64101500I0J-237500D01*
G01*
X168750000Y-64676500D01*
G75*
G02*
X168512500Y-64914000I-237500J0D01*
G01*
G37*
G36*
G01*
X168512500Y-63164000D02*
X168037500Y-63164000D01*
G75*
G02*
X167800000Y-62926500I0J237500D01*
G01*
X167800000Y-62351500D01*
G75*
G02*
X168037500Y-62114000I237500J0D01*
G01*
X168512500Y-62114000D01*
G75*
G02*
X168750000Y-62351500I0J-237500D01*
G01*
X168750000Y-62926500D01*
G75*
G02*
X168512500Y-63164000I-237500J0D01*
G01*
G37*
%TD*%
%TO.C,R3*%
G36*
G01*
X174932500Y-65192000D02*
X173682500Y-65192000D01*
G75*
G02*
X173432500Y-64942000I0J250000D01*
G01*
X173432500Y-64142000D01*
G75*
G02*
X173682500Y-63892000I250000J0D01*
G01*
X174932500Y-63892000D01*
G75*
G02*
X175182500Y-64142000I0J-250000D01*
G01*
X175182500Y-64942000D01*
G75*
G02*
X174932500Y-65192000I-250000J0D01*
G01*
G37*
G36*
G01*
X174932500Y-62092000D02*
X173682500Y-62092000D01*
G75*
G02*
X173432500Y-61842000I0J250000D01*
G01*
X173432500Y-61042000D01*
G75*
G02*
X173682500Y-60792000I250000J0D01*
G01*
X174932500Y-60792000D01*
G75*
G02*
X175182500Y-61042000I0J-250000D01*
G01*
X175182500Y-61842000D01*
G75*
G02*
X174932500Y-62092000I-250000J0D01*
G01*
G37*
%TD*%
M02*
